<?xml version="1.0" encoding="utf-8"?>
<!-- Generator: Adobe Illustrator 19.2.1, SVG Export Plug-In . SVG Version: 6.00 Build 0)  -->
<svg version="1.1" id="Layer_1" xmlns="http://www.w3.org/2000/svg" xmlns:xlink="http://www.w3.org/1999/xlink" x="0px" y="0px"
	 viewBox="0 0 90 81.9" style="enable-background:new 0 0 90 81.9;" xml:space="preserve">
<style type="text/css">
	.st0{fill:#213D44;}
	.st1{fill:#E7D461;}
</style>
<g>
	<g>
		<circle class="st0" cx="73.9" cy="74.7" r="2.4"/>
		<rect x="6.4" y="19.3" class="st0" width="30.5" height="22.5"/>
		<rect x="64.3" y="45" class="st0" width="19.3" height="8"/>
		<circle class="st0" cx="17.7" cy="8" r="1.6"/>
		<circle class="st0" cx="8" cy="8" r="1.6"/>
		<circle class="st0" cx="12.9" cy="8" r="1.6"/>
		<circle class="st0" cx="70.7" cy="34.5" r="0.8"/>
		<path class="st0" d="M77.1,33.7h-4c-0.4,0-0.8,0.4-0.8,0.8s0.4,0.8,0.8,0.8h4c0.4,0,0.8-0.4,0.8-0.8S77.6,33.7,77.1,33.7z"/>
		<path class="st0" d="M83.5,27.3h-6.4V6.4c0-3.5-2.9-6.4-6.4-6.4H6.4C2.9,0,0,2.9,0,6.4v53c0,3.5,2.9,6.4,6.4,6.4h51.4v9.6
			c0,3.5,2.9,6.4,6.4,6.4h19.3c3.5,0,6.4-2.9,6.4-6.4V33.7C90,30.2,87.1,27.3,83.5,27.3z M3.2,6.4c0-1.8,1.4-3.2,3.2-3.2h64.3
			c1.8,0,3.2,1.4,3.2,3.2v6.4H3.2V6.4z M57.8,33.7v28.9H6.4c-1.8,0-3.2-1.4-3.2-3.2V16.1h70.7v11.2h-9.6
			C60.7,27.3,57.8,30.2,57.8,33.7z M86.7,75.5c0,1.8-1.4,3.2-3.2,3.2H64.3c-1.8,0-3.2-1.4-3.2-3.2v-4.8h25.7V75.5z M86.7,67.5H61
			V41.8h25.7V67.5z M86.7,38.6H61v-4.8c0-1.8,1.4-3.2,3.2-3.2h19.3c1.8,0,3.2,1.4,3.2,3.2C86.7,33.7,86.7,38.6,86.7,38.6z"/>
		<rect x="64.3" y="56.2" class="st1" width="19.3" height="8"/>
		<path class="st1" d="M70.7,24.1v-4.8H40.2v22.5h14.5v-7.6c0-5.5,4.5-10,10-10H70.7z"/>
		<rect x="6.4" y="45" class="st1" width="48.2" height="14.5"/>
	</g>
</g>
</svg>
