<?xml version="1.0" encoding="utf-8"?>
<!-- Generator: Adobe Illustrator 19.2.1, SVG Export Plug-In . SVG Version: 6.00 Build 0)  -->
<svg version="1.1" id="Layer_1" xmlns="http://www.w3.org/2000/svg" xmlns:xlink="http://www.w3.org/1999/xlink" x="0px" y="0px"
	 viewBox="0 0 24 24" style="enable-background:new 0 0 24 24;" xml:space="preserve">
<style type="text/css">
	.st0{fill:#66BB97;}
	.st1{fill:#213D44;}
</style>
<g>
	<path class="st0" d="M22,20c-0.7,0-1-0.5-1-1.5c0-1.4-1.1-2.5-2.5-2.5S16,17.1,16,18.5s1.1,2.5,2.5,2.5c0.8,0,1.4-0.3,1.9-0.9
		c0.3,0.6,0.9,0.9,1.6,0.9c2,0,2-1.9,2-2.5c0-3-2.5-5.5-5.5-5.5S13,15.5,13,18.5s2.5,5.5,5.5,5.5c1.4,0,2.8-0.5,3.8-1.5
		c0.2-0.2,0.2-0.5,0-0.7c-0.2-0.2-0.5-0.2-0.7,0c-0.8,0.8-2,1.3-3.1,1.3C16,23,14,21,14,18.5s2-4.5,4.5-4.5s4.5,2,4.5,4.5
		C23,19.6,22.7,20,22,20z M18.5,20c-0.8,0-1.5-0.7-1.5-1.5s0.7-1.5,1.5-1.5s1.5,0.7,1.5,1.5S19.3,20,18.5,20z"/>
	<path class="st1" d="M11.5,21h-9C1.7,21,1,20.3,1,19.5V5h20v7c0,0.3,0.2,0.5,0.5,0.5S22,12.3,22,12V2.5C22,1.1,20.9,0,19.5,0h-17
		C1.1,0,0,1.1,0,2.5v17C0,20.9,1.1,22,2.5,22h9c0.3,0,0.5-0.2,0.5-0.5S11.8,21,11.5,21z M2.5,1h17C20.3,1,21,1.7,21,2.5V4H1V2.5
		C1,1.7,1.7,1,2.5,1z"/>
	<circle class="st1" cx="2.5" cy="2.5" r="0.5"/>
	<circle class="st1" cx="4.5" cy="2.5" r="0.5"/>
	<circle class="st1" cx="6.5" cy="2.5" r="0.5"/>
</g>
</svg>
