<?xml version="1.0" encoding="utf-8"?>
<!-- Generator: Adobe Illustrator 19.2.1, SVG Export Plug-In . SVG Version: 6.00 Build 0)  -->
<svg version="1.1" id="Layer_1" xmlns="http://www.w3.org/2000/svg" xmlns:xlink="http://www.w3.org/1999/xlink" x="0px" y="0px"
	 viewBox="0 0 101.6 97.7" style="enable-background:new 0 0 101.6 97.7;" xml:space="preserve">
<style type="text/css">
	.st0{fill:#E7D461;}
	.st1{fill:#213D44;}
</style>
<g>
	<g>
		<path class="st0" d="M81.1,15.1c-10.9-10.9-28.7-10.9-39.6,0c-10,10-10.8,25.6-2.6,36.6L34,56.5c-2.3-0.5-4.8,0.2-6.6,2L6.6,79.4
			c-2.8,2.8-2.8,7.4,0,10.3s7.4,2.8,10.3,0l20.9-20.9c1.8-1.8,2.4-4.3,2-6.6l4.9-4.9c11,8.2,26.6,7.3,36.6-2.6
			C92,43.8,92,26,81.1,15.1z M47.1,49.1c-7.8-7.8-7.8-20.5,0-28.3s20.5-7.8,28.3,0c7.8,7.8,7.8,20.5,0,28.3
			C67.6,56.9,54.9,56.9,47.1,49.1z"/>
		<path class="st1" d="M7.1,4H28V0H7.1C3.2,0,0,3.2,0,7.1V28h4V7.1C4,5.4,5.4,4,7.1,4z"/>
		<path class="st1" d="M97.6,69.7v20.9c0,1.7-1.4,3.1-3.1,3.1H73.6v4h20.9c3.9,0,7.1-3.2,7.1-7.1V69.7H97.6z"/>
	</g>
</g>
</svg>
