<?xml version="1.0" encoding="utf-8"?>
<!-- Generator: Adobe Illustrator 19.2.1, SVG Export Plug-In . SVG Version: 6.00 Build 0)  -->
<svg version="1.1" id="Layer_1" xmlns="http://www.w3.org/2000/svg" xmlns:xlink="http://www.w3.org/1999/xlink" x="0px" y="0px"
	 viewBox="0 0 75.7 72.3" style="enable-background:new 0 0 75.7 72.3;" xml:space="preserve">
<style type="text/css">
	.st0{fill:#213D44;}
	.st1{fill:#FB964B;}
</style>
<path class="st0" d="M74.1,72.3H1.6c-0.9,0-1.6-0.7-1.6-1.6V1.6C0,0.7,0.7,0,1.6,0h72.5c0.9,0,1.6,0.7,1.6,1.6v69.2
	C75.7,71.6,75,72.3,74.1,72.3z M3,69.3h69.7V3H3V69.3z"/>
<path class="st1" d="M64.1,49.7H10.9c-0.9,0-1.6-0.7-1.6-1.6V16.9c0-0.9,0.7-1.6,1.6-1.6h53.2c0.9,0,1.6,0.7,1.6,1.6v31.2
	C65.7,49,65,49.7,64.1,49.7z M12.3,46.7h50.3V18.3H12.3V46.7z"/>
<path class="st0" d="M64.5,5H18.2c-0.3,0-0.5-0.2-0.5-0.5S18,4,18.2,4h46.2C64.8,4,65,4.2,65,4.5S64.8,5,64.5,5z"/>
<g>
	<circle class="st0" cx="11.7" cy="4.2" r="1"/>
</g>
<g>
	<circle class="st0" cx="14.9" cy="4.2" r="1"/>
</g>
<path class="st0" d="M42,56H11.2c-0.8,0-1.5-0.7-1.5-1.5s0.7-1.5,1.5-1.5H42c0.8,0,1.5,0.7,1.5,1.5S42.8,56,42,56z"/>
<path class="st0" d="M42,62.3H11.2c-0.8,0-1.5-0.7-1.5-1.5s0.7-1.5,1.5-1.5H42c0.8,0,1.5,0.7,1.5,1.5S42.8,62.3,42,62.3z"/>
<path class="st0" d="M64.8,56H50.5c-0.8,0-1.5-0.7-1.5-1.5s0.7-1.5,1.5-1.5h14.3c0.8,0,1.5,0.7,1.5,1.5S65.7,56,64.8,56z"/>
<path class="st0" d="M65,62H50.5c-0.8,0-1.5-0.7-1.5-1.5s0.7-1.5,1.5-1.5H65c0.8,0,1.5,0.7,1.5,1.5S65.8,62,65,62z"/>
<g>
	<circle class="st0" cx="8.2" cy="4.1" r="1"/>
</g>
<path class="st0" d="M74,8.1H1.3c-0.6,0-1-0.4-1-1s0.4-1,1-1H74c0.6,0,1,0.4,1,1S74.6,8.1,74,8.1z"/>
</svg>
