<?xml version="1.0" encoding="utf-8"?>
<!-- Generator: Adobe Illustrator 19.2.1, SVG Export Plug-In . SVG Version: 6.00 Build 0)  -->
<svg version="1.1" id="Layer_1" xmlns="http://www.w3.org/2000/svg" xmlns:xlink="http://www.w3.org/1999/xlink" x="0px" y="0px"
	 viewBox="0 0 70.2 59.2" style="enable-background:new 0 0 70.2 59.2;" xml:space="preserve">
<style type="text/css">
	.st0{fill:#66BB97;}
	.st1{fill:#213D44;}
</style>
<path class="st0" d="M16.2,17c0-1.5-0.5-2.6-1.2-2.6H1.2C0.5,14.4,0,15.6,0,17c0,1.4,0.5,2.7,1.2,2.7H15
	C15.7,19.7,16.2,18.5,16.2,17z"/>
<path class="st0" d="M23,30c0-1.5-0.5-2.6-1.2-2.6H8.1c-0.7,0-1.2,1.2-1.2,2.6s0.5,2.6,1.2,2.6h13.8C22.5,32.6,23,31.6,23,30z"/>
<path class="st0" d="M28.2,40.3H14.4c-0.7,0-1.2,1.2-1.2,2.6c0,1.5,0.5,2.6,1.2,2.6h13.8c0.7,0,1.2-1.2,1.2-2.6S28.9,40.3,28.2,40.3
	z"/>
<path class="st1" d="M70.2,3.5V3.3c0-0.2,0-0.3,0-0.5V2.7c0-0.2,0-0.3-0.2-0.5V2.1l0,0c0-0.5,0-0.6-0.2-0.8l0,0l0,0
	c-0.2-0.2-0.2-0.3-0.3-0.5c0,0,0-0.2-0.2-0.2c-0.2-0.2-0.2-0.2-0.3-0.3c0,0-0.2,0-0.2-0.2c-0.2,0-0.2-0.2-0.3-0.2h-0.2
	C68.4,0,68.3,0,68.1,0l0,0H14.7l0,0H7.4C6.1,0,5.2,1.4,5.2,3s0.9,3,2.2,3h6.7l19.6,18.5C34,24.9,34.5,25,35,25c0.3,0,0.5,0,0.8-0.2
	L64.3,8.5L52.4,53.1H22c-1.3,0-2.2,1.4-2.2,3c0,1.7,0.9,3,2.2,3h31.8c0.9,0,1.7-0.8,2-2L70.2,4.1V3.9C70.2,3.8,70.2,3.6,70.2,3.5z
	 M35.1,18.7L21.8,6.1h35.3L35.1,18.7z"/>
</svg>
