<?xml version="1.0" encoding="utf-8"?>
<!-- Generator: Adobe Illustrator 19.2.1, SVG Export Plug-In . SVG Version: 6.00 Build 0)  -->
<svg version="1.1" id="Layer_1" xmlns="http://www.w3.org/2000/svg" xmlns:xlink="http://www.w3.org/1999/xlink" x="0px" y="0px"
	 viewBox="0 0 200 200.3" style="enable-background:new 0 0 200 200.3;" xml:space="preserve">
<style type="text/css">
	.st0{fill:#213D44;}
	.st1{fill:#FB964B;}
</style>
<title>alt</title>
<path class="st0" d="M200.3,4.3c0-2.2-1.8-4-4-4H4.3c-2.2,0-4,1.8-4,4v192c0,2.2,1.8,4,4,4h192c2.2,0,4-1.8,4-4V4.3z M192.3,8.3v18
	H8.3v-18H192.3z M8.3,192.3v-158h184v158C192.3,192.3,8.3,192.3,8.3,192.3z"/>
<circle class="st0" cx="21.5" cy="17" r="4.3"/>
<circle class="st0" cx="34.9" cy="17" r="4.3"/>
<circle class="st0" cx="48.4" cy="17" r="4.3"/>
<path class="st0" d="M92.7,142H30.4c-2.2,0-4-1.8-4-4s1.8-4,4-4h62.3c2.2,0,4,1.8,4,4S94.9,142,92.7,142z"/>
<path class="st0" d="M134.5,162.2H30.4c-2.2,0-4-1.8-4-4s1.8-4,4-4h104.2c2.2,0,4,1.8,4,4S136.7,162.2,134.5,162.2z"/>
<path class="st0" d="M124.3,182.3h-94c-2.2,0-4-1.8-4-4s1.8-4,4-4h94c2.2,0,4,1.8,4,4S126.5,182.3,124.3,182.3z"/>
<path class="st1" d="M159.8,42.2c-7.9,0-14.3,6.4-14.3,14.3c0,2.5,0.7,5,1.9,7.2l-25.1,25.1c-4.2-2.5-9.5-2.6-13.8-0.3L94.1,74.1
	c3.7-7,1-15.7-6-19.4s-15.7-1-19.4,6c-2.2,4.2-2.2,9.2,0,13.3L46.9,96c-7-3.7-15.7-1-19.4,6.1s-1,15.7,6.1,19.4
	c7,3.7,15.7,1,19.4-6.1c2.3-4.4,2.2-9.6-0.3-13.9l21.6-21.7c4.4,2.6,9.9,2.6,14.3,0L102.7,94c-4,6.9-1.6,15.6,5.2,19.6
	c6.9,4,15.6,1.6,19.6-5.2c2.4-4.2,2.6-9.4,0.3-13.8l25.3-25.3c7,3.7,15.7,1,19.3-6.1s1-15.7-6.1-19.3
	C164.4,42.7,162.1,42.2,159.8,42.2z M40.2,115c-3.5,0-6.3-2.8-6.3-6.3c0-3.5,2.8-6.3,6.3-6.3s6.3,2.8,6.3,6.3c0,0,0,0,0,0
	C46.6,112.2,43.7,115,40.2,115z M81.4,73.8c-3.5,0-6.3-2.8-6.3-6.3c0-3.5,2.8-6.3,6.3-6.3c3.5,0,6.3,2.8,6.3,6.3
	C87.8,71,84.9,73.8,81.4,73.8L81.4,73.8z M115.1,107.5c-3.5,0-6.3-2.8-6.3-6.3s2.8-6.3,6.3-6.3s6.3,2.8,6.3,6.3v0
	C121.5,104.7,118.6,107.5,115.1,107.5C115.1,107.5,115.1,107.5,115.1,107.5L115.1,107.5z M159.8,62.9c-3.5,0-6.3-2.8-6.3-6.3
	c0-3.5,2.8-6.3,6.3-6.3c3.5,0,6.3,2.8,6.3,6.3v0C166.1,60,163.3,62.9,159.8,62.9L159.8,62.9L159.8,62.9z"/>
</svg>
