<?xml version="1.0" encoding="utf-8"?>
<!-- Generator: Adobe Illustrator 19.2.1, SVG Export Plug-In . SVG Version: 6.00 Build 0)  -->
<svg version="1.1" id="Layer_1" xmlns="http://www.w3.org/2000/svg" xmlns:xlink="http://www.w3.org/1999/xlink" x="0px" y="0px"
	 viewBox="0 0 90 90" style="enable-background:new 0 0 90 90;" xml:space="preserve">
<style type="text/css">
	.st0{fill:#213D44;}
	.st1{fill:#66BB97;}
</style>
<path class="st0" d="M70.3,85H56.6v-7h-5.2v7H37.7c-2.7,0-5,2.2-5,5h42.6C75.3,87.3,73.1,85,70.3,85z"/>
<path class="st0" d="M42.9,19.1c-0.1,1.8-0.2,3.4-0.3,5H85v43.7H23V50.9c-0.7,0.3-1.5,0.6-2.3,0.9L19,52.5l-1-0.4v20.7h72V19.1H42.9
	z"/>
<path class="st1" d="M37.2,3.7C35,5.6,33,6.5,31.2,6.5c-2.9,0-5.2-2.3-6.5-6.5H13.2c-1.4,4.1-3.6,6.5-6.5,6.5
	c-1.8,0-3.8-0.9-5.9-2.7C-2.5,34.8,5.1,41.9,19,47.2C32.9,41.9,40.4,34.8,37.2,3.7z M5.1,11.3c0.5,0.1,1,0.1,1.5,0.1
	c2.1,0,6.7-0.7,9.8-6.5h5c2.6,4.9,6.3,6.1,8.7,6.4l1.9-0.6l-1.6,0.9L7.1,31.1C5.4,26.7,4.6,20.5,5.1,11.3z M19,41.8
	c-3.7-1.5-6.8-3.2-9.2-6l-1.5,0.4l1.4-0.8l23.2-19.3C33.1,33.7,27.6,38.3,19,41.8z"/>
</svg>
