<?xml version="1.0" encoding="utf-8"?>
<!-- Generator: Adobe Illustrator 19.2.1, SVG Export Plug-In . SVG Version: 6.00 Build 0)  -->
<svg version="1.1" id="Layer_1" xmlns="http://www.w3.org/2000/svg" xmlns:xlink="http://www.w3.org/1999/xlink" x="0px" y="0px"
	 viewBox="0 0 19 17" style="enable-background:new 0 0 19 17;" xml:space="preserve">
<style type="text/css">
	.st0{fill:#213D44;}
	.st1{fill:#E7D461;}
</style>
<title>icon-barcode</title>
<path class="st0" d="M3.5,14C3.2,14,3,13.8,3,13.5v-10C3,3.2,3.2,3,3.5,3S4,3.2,4,3.5v10C4,13.8,3.8,14,3.5,14z"/>
<path class="st0" d="M5.5,12C5.2,12,5,11.8,5,11.5v-8C5,3.2,5.2,3,5.5,3S6,3.2,6,3.5v8C6,11.8,5.8,12,5.5,12z"/>
<path class="st0" d="M7.5,12C7.2,12,7,11.8,7,11.5v-8C7,3.2,7.2,3,7.5,3S8,3.2,8,3.5v8C8,11.8,7.8,12,7.5,12z"/>
<path class="st0" d="M9.5,14C9.2,14,9,13.8,9,13.5v-10C9,3.2,9.2,3,9.5,3S10,3.2,10,3.5v10C10,13.8,9.8,14,9.5,14z"/>
<path class="st0" d="M11.5,12c-0.3,0-0.5-0.2-0.5-0.5v-8C11,3.2,11.2,3,11.5,3S12,3.2,12,3.5v8C12,11.8,11.8,12,11.5,12z"/>
<path class="st0" d="M13.5,12c-0.3,0-0.5-0.2-0.5-0.5v-8C13,3.2,13.2,3,13.5,3S14,3.2,14,3.5v8C14,11.8,13.8,12,13.5,12z"/>
<path class="st0" d="M15.5,14c-0.3,0-0.5-0.2-0.5-0.5v-10C15,3.2,15.2,3,15.5,3S16,3.2,16,3.5v10C16,13.8,15.8,14,15.5,14z"/>
<path class="st0" d="M5.5,14C5.2,14,5,13.8,5,13.5c0-0.1,0.1-0.3,0.1-0.3c0.2-0.2,0.5-0.2,0.7,0c0.2,0.2,0.2,0.5,0,0.7
	C5.8,13.9,5.6,14,5.5,14z"/>
<path class="st0" d="M7.5,14c-0.1,0-0.3-0.1-0.3-0.1C7.1,13.8,7,13.6,7,13.5C7,13.2,7.2,13,7.5,13c0.1,0,0.3,0.1,0.3,0.1
	c0.2,0.2,0.2,0.5,0,0.7C7.8,13.9,7.6,14,7.5,14z"/>
<path class="st0" d="M11.5,14c-0.3,0-0.5-0.2-0.5-0.5c0-0.1,0.1-0.3,0.1-0.3c0.2-0.2,0.5-0.2,0.7,0c0.2,0.2,0.2,0.5,0,0.7
	C11.8,13.9,11.6,14,11.5,14z"/>
<path class="st0" d="M13.5,14c-0.1,0-0.3-0.1-0.4-0.1c-0.1-0.1-0.1-0.2-0.1-0.4c0-0.3,0.2-0.5,0.5-0.5c0.1,0,0.3,0.1,0.3,0.1
	c0.2,0.2,0.2,0.5,0,0.7C13.8,13.9,13.6,14,13.5,14z"/>
<path class="st1" d="M0.5,4C0.2,4,0,3.8,0,3.5v-3C0,0.2,0.2,0,0.5,0h3C3.8,0,4,0.2,4,0.5S3.8,1,3.5,1H1v2.5C1,3.8,0.8,4,0.5,4z"/>
<path class="st1" d="M3.5,17h-3C0.2,17,0,16.8,0,16.5v-3C0,13.2,0.2,13,0.5,13S1,13.2,1,13.5V16h2.5C3.8,16,4,16.2,4,16.5
	S3.8,17,3.5,17z"/>
<path class="st1" d="M18.5,4C18.2,4,18,3.8,18,3.5V1h-2.5C15.2,1,15,0.8,15,0.5S15.2,0,15.5,0h3C18.8,0,19,0.2,19,0.5v3
	C19,3.8,18.8,4,18.5,4z"/>
<path class="st1" d="M18.5,17h-3c-0.3,0-0.5-0.2-0.5-0.5s0.2-0.5,0.5-0.5H18v-2.5c0-0.3,0.2-0.5,0.5-0.5s0.5,0.2,0.5,0.5v3
	C19,16.8,18.8,17,18.5,17z"/>
</svg>
