<?xml version="1.0" encoding="utf-8"?>
<!-- Generator: Adobe Illustrator 19.2.1, SVG Export Plug-In . SVG Version: 6.00 Build 0)  -->
<svg version="1.1" id="Layer_1" xmlns="http://www.w3.org/2000/svg" xmlns:xlink="http://www.w3.org/1999/xlink" x="0px" y="0px"
	 viewBox="0 0 108.7 101.5" style="enable-background:new 0 0 108.7 101.5;" xml:space="preserve">
<style type="text/css">
	.st0{enable-background:new    ;}
	.st1{fill:#213D44;}
	.st2{fill:#66BB97;}
</style>
<path d="M-4103.3,2338.5c0-0.2,0-0.5,0-0.8c0-2.7,0.1-8.9-4.3-10c-5.2-1.3-7.4-3-8.2-4c2.4-2,3.8-5.4,3.8-9.7
	c0-6.9-3.6-11.4-9.3-11.5l-0.3,0c-5.5,0-9.1,4.5-9.1,11.5c0,4.3,1.5,7.7,4,9.7c-0.4,0.5-1.2,1.2-2.5,1.9c0.6,0.8,1.2,1.8,1.5,3.3
	c2.4-1.2,3.7-2.5,4.4-3.6c0.6,0.2,1.3,0.2,2,0.3l0.3,0c0.7,0,1.4-0.1,2-0.2c1.1,1.7,3.9,4.1,10.6,5.8c1.5,0.4,1.6,4.2,1.6,6l-18.5,0
	c0,0,0,0,0,0c-0.9,0-1.7,0.8-1.7,1.7c0,0.9,0.8,1.7,1.7,1.7l20.3,0.1c0,0,0,0,0,0c0.9,0,1.6-0.7,1.7-1.6
	C-4103.3,2338.9-4103.3,2338.7-4103.3,2338.5z M-4121.2,2322c-4.2-0.1-5.7-4.2-5.7-7.9c0-2.4,0.5-7.9,5.4-7.9l0.2,0
	c5.3,0.2,5.8,6.1,5.8,7.9c0,3.7-1.4,7.9-5.5,7.9L-4121.2,2322z"/>
<path d="M-4174.5,2323.7c2.4-2,3.8-5.4,3.8-9.6c0-6.9-3.6-11.4-9.2-11.5l-0.3,0c-5.5,0-9.1,4.5-9.1,11.5c0,4.3,1.5,7.7,4,9.7
	c-0.9,1-3,2.6-8.2,4c-4.5,1.1-4.3,7.4-4.3,10c0,0.3,0,0.5,0,0.7c0,0.1-0.1,0.3-0.1,0.5c0,0.9,0.8,1.7,1.7,1.7l20.3,0.1c0,0,0,0,0,0
	c0.9,0,1.7-0.8,1.7-1.7c0-0.9-0.8-1.7-1.7-1.7l-18.4,0c0-1.8,0.1-5.6,1.6-5.9c6.7-1.7,9.5-4.2,10.6-5.8c0.6,0.2,1.3,0.2,2,0.3l0.3,0
	c0.7,0,1.4-0.1,2-0.2c0.7,1,2,2.3,4.3,3.5c0.3-1.5,0.9-2.5,1.5-3.3C-4173.3,2324.9-4174.1,2324.2-4174.5,2323.7z M-4180,2322
	c-4.2-0.1-5.7-4.2-5.7-7.9c0-2.4,0.5-7.9,5.5-7.9l0.2,0c5.3,0.2,5.7,6.1,5.7,7.9c0,3.7-1.4,7.9-5.5,7.9L-4180,2322z"/>
<path d="M-4134.6,2325c-7-1.8-9.2-4.1-10-5.2c3.1-2.3,4.9-6.5,4.9-11.9c0-8.1-4.3-13.5-10.9-13.7c-0.1,0-0.2,0-0.4,0
	c-6.6,0-10.7,5.3-10.7,13.7c0,5.3,1.9,9.5,5.1,11.8c-0.7,1.1-2.9,3.4-10,5.2c-5.1,1.3-5,8.9-5,12.4c0,0.5,0,0.8,0,1.1
	c0,0.5,0.2,1,0.5,1.4c0.3,0.4,0.8,0.7,1.4,0.7l38,0.1c0,0,0,0,0,0c0.8,0,1.4-0.5,1.6-1.2c0.2-0.3,0.2-0.6,0.2-1c0-0.2,0-0.6,0-1.1
	C-4129.6,2333.9-4129.5,2326.4-4134.6,2325z M-4158,2308c0-2.4,0.5-10.1,7.1-10.1l0.3,0c6.9,0.2,7.4,7.8,7.4,10.1
	c0,5-2.2,10.1-7.1,10.1l-0.2,0C-4156,2317.9-4158,2312.8-4158,2308z M-4165.5,2328.5c8.3-2.1,11.3-5.1,12.4-7.2
	c0.8,0.2,1.6,0.3,2.5,0.3l0.3,0c0.9,0,1.7-0.1,2.5-0.3c1.1,2,4.1,5,12.4,7.1c2.3,0.6,2.3,6.6,2.2,8.7l-34.5-0.1
	C-4167.8,2334.9-4167.8,2329.1-4165.5,2328.5z"/>
<text transform="matrix(1 0 0 1 -4200.9146 2385.7036)" style="font-family:'HelveticaNeue-Bold'; font-size:5px;">Created by Filipos Trineros</text>
<text transform="matrix(1 0 0 1 -4200.9146 2390.7036)" style="font-family:'HelveticaNeue-Bold'; font-size:5px;">from the Noun Project</text>
<g>
	<g>
		<path class="st1" d="M60.2,10.1c-0.1,3.3-2.6,5.8-5.9,5.9c-3.3,0.1-5.8-2.7-5.9-5.9c-0.1-3.3,2.7-5.8,5.9-5.9
			C57.6,4.1,60.2,6.9,60.2,10.1c0,2.7,4.2,2.7,4.2,0c-0.1-5.3-4-9.4-9.2-10c-5-0.6-9.8,3.3-10.7,8.1c-1,5.1,2.2,10.1,7.1,11.6
			c5.1,1.5,10.2-1.5,12.1-6.2c0.4-1.1,0.6-2.3,0.6-3.5C64.5,7.4,60.3,7.4,60.2,10.1z"/>
	</g>
</g>
<g>
	<g>
		<path class="st1" d="M63.1,19.7c1.9,1.2,3,3.1,3.5,5.2c0.2,1.1,0.1,2.4,0.1,3.6c0,1.4,0,2.7,0,4.1c0,0.8-0.3,1.2-1.1,1.2
			c-5.1,0-10.2,0-15.3,0c-1.9,0-3.9,0-5.8,0c-0.4,0-0.8,0-1.2,0c-0.6,0-1.1-0.4-1.1-1c0-2,0-3.9,0-5.9c0-2.9,1-5.5,3.5-7.1
			c0.9-0.6,1.3-1.8,0.7-2.9c-0.5-0.9-1.9-1.4-2.9-0.7c-2.3,1.5-3.8,3.5-4.8,6c-0.6,1.6-0.7,3.3-0.7,5c0,1.5,0,3,0,4.5
			c0,1.8,0.2,3.3,1.4,4.7c1.6,1.9,4.2,1.6,6.4,1.6c3,0,5.9,0,8.9,0c2.8,0,5.7,0,8.5,0c2.3,0,4.7,0.2,6.3-1.8
			c1.1-1.3,1.3-2.8,1.3-4.5c0-1.5,0-3,0-4.5c0-1.7-0.1-3.4-0.7-5c-0.9-2.5-2.7-4.6-4.9-6C62.9,14.6,60.8,18.2,63.1,19.7L63.1,19.7z"
			/>
	</g>
</g>
<g>
	<g>
		<path class="st1" d="M22.3,73.6c-0.1,3.3-2.6,5.8-5.9,5.9c-3.3,0.1-5.8-2.7-5.9-5.9c-0.1-3.3,2.7-5.8,5.9-5.9
			C19.7,67.7,22.3,70.5,22.3,73.6c0,2.7,4.2,2.7,4.2,0c-0.1-5.3-4-9.4-9.2-10c-5-0.6-9.8,3.3-10.7,8.1c-1,5.1,2.2,10.1,7.1,11.6
			c5.1,1.5,10.2-1.5,12.1-6.2c0.4-1.1,0.6-2.3,0.6-3.5C26.5,71,22.4,71,22.3,73.6z"/>
	</g>
</g>
<g>
	<g>
		<path class="st1" d="M25.1,83.3c1.9,1.2,3,3.1,3.5,5.2c0.2,1.1,0.1,2.4,0.1,3.6c0,1.4,0,2.7,0,4.1c0,0.8-0.3,1.2-1.1,1.2
			c-5.1,0-10.2,0-15.3,0c-1.9,0-3.9,0-5.8,0c-0.4,0-0.8,0-1.2,0c-0.6,0-1.1-0.4-1.1-1c0-2,0-3.9,0-5.9c0-2.9,1-5.5,3.5-7.1
			c0.9-0.6,1.3-1.8,0.7-2.9c-0.5-0.9-1.9-1.4-2.9-0.7c-2.3,1.5-3.8,3.5-4.8,6C0.1,87.3,0,89,0,90.7c0,1.5,0,3,0,4.5
			c0,1.8,0.2,3.3,1.4,4.7c1.6,1.9,4.2,1.6,6.4,1.6c3,0,5.9,0,8.9,0c2.8,0,5.7,0,8.5,0c2.3,0,4.7,0.2,6.3-1.8
			c1.1-1.3,1.3-2.8,1.3-4.5c0-1.5,0-3,0-4.5c0-1.7-0.1-3.4-0.7-5c-0.9-2.5-2.7-4.6-4.9-6C25,78.2,22.9,81.8,25.1,83.3L25.1,83.3z"/>
	</g>
</g>
<g>
	<g>
		<path class="st1" d="M98.2,73.6c-0.1,3.3-2.6,5.8-5.9,5.9c-3.3,0.1-5.8-2.7-5.9-5.9c-0.1-3.3,2.7-5.8,5.9-5.9
			C95.6,67.7,98.1,70.5,98.2,73.6c0,2.7,4.2,2.7,4.2,0c-0.1-5.3-4-9.4-9.2-10c-5-0.6-9.8,3.3-10.7,8.1c-1,5.1,2.2,10.1,7.1,11.6
			c5.1,1.5,10.2-1.5,12.1-6.2c0.4-1.1,0.6-2.3,0.6-3.5C102.4,71,98.2,71,98.2,73.6z"/>
	</g>
</g>
<g>
	<g>
		<path class="st1" d="M101,83.3c1.9,1.2,3,3.1,3.5,5.2c0.2,1.1,0.1,2.4,0.1,3.6c0,1.4,0,2.7,0,4.1c0,0.8-0.3,1.2-1.1,1.2
			c-5.1,0-10.2,0-15.3,0c-1.9,0-3.9,0-5.8,0c-0.4,0-0.8,0-1.2,0c-0.6,0-1.1-0.4-1.1-1c0-2,0-3.9,0-5.9c0-2.9,1-5.5,3.5-7.1
			c0.9-0.6,1.3-1.8,0.7-2.9c-0.5-0.9-1.9-1.4-2.9-0.7c-2.3,1.5-3.8,3.5-4.8,6c-0.6,1.6-0.7,3.3-0.7,5c0,1.5,0,3,0,4.5
			c0,1.8,0.2,3.3,1.4,4.7c1.6,1.9,4.2,1.6,6.4,1.6c3,0,5.9,0,8.9,0c2.8,0,5.7,0,8.5,0c2.3,0,4.7,0.2,6.3-1.8
			c1.1-1.3,1.3-2.8,1.3-4.5c0-1.5,0-3,0-4.5c0-1.7-0.1-3.4-0.7-5c-0.9-2.5-2.7-4.6-4.9-6C100.9,78.2,98.8,81.8,101,83.3L101,83.3z"
			/>
	</g>
</g>
<g>
	<g>
		<path class="st2" d="M52.3,45.6c0,5.8,0,11.7,0,17.5c0,2.7,4.2,2.7,4.2,0c0-5.8,0-11.7,0-17.5C56.5,42.9,52.3,42.9,52.3,45.6
			L52.3,45.6z"/>
	</g>
</g>
<g>
	<g>
		<path class="st2" d="M40.2,73.7c5.1-2.9,10.1-5.8,15.2-8.8c2.3-1.3,0.2-4.9-2.1-3.6c-5.1,2.9-10.1,5.8-15.2,8.8
			C35.8,71.4,37.9,75,40.2,73.7L40.2,73.7z"/>
	</g>
</g>
<g>
	<g>
		<path class="st2" d="M70.7,70.1c-5.1-2.9-10.1-5.8-15.2-8.8c-2.3-1.3-4.4,2.3-2.1,3.6c5.1,2.9,10.1,5.8,15.2,8.8
			C70.9,75,73,71.4,70.7,70.1L70.7,70.1z"/>
	</g>
</g>
</svg>
