<?xml version="1.0" encoding="utf-8"?>
<!-- Generator: Adobe Illustrator 19.2.1, SVG Export Plug-In . SVG Version: 6.00 Build 0)  -->
<svg version="1.1" id="Layer_1" xmlns="http://www.w3.org/2000/svg" xmlns:xlink="http://www.w3.org/1999/xlink" x="0px" y="0px"
	 viewBox="0 0 34.5 69.5" style="enable-background:new 0 0 34.5 69.5;" xml:space="preserve">
<style type="text/css">
	.st0{fill:#213D44;}
	.st1{fill:#E7D461;}
</style>
<g>
	<g>
		<path class="st0" d="M17.2,69.5c-0.7,0-1.4-0.3-1.9-0.8c-1.1-1.1-1.1-2.8,0-3.9l14.5-14.5c1.1-1.1,2.8-1.1,3.9,0s1.1,2.8,0,3.9
			L19.1,68.7C18.6,69.2,17.9,69.5,17.2,69.5z"/>
	</g>
</g>
<g>
	<g>
		<path class="st0" d="M17.2,69.5c-0.7,0-1.4-0.3-1.9-0.8L0.8,54.2c-1.1-1.1-1.1-2.8,0-3.9s2.8-1.1,3.9,0l14.5,14.5
			c1.1,1.1,1.1,2.8,0,3.9C18.6,69.2,17.9,69.5,17.2,69.5z"/>
	</g>
</g>
<g>
	<path class="st0" d="M2.7,20c-0.7,0-1.4-0.3-1.9-0.8c-1.1-1.1-1.1-2.8,0-3.9L15.3,0.9c1.1-1.1,2.8-1.1,3.9,0s1.1,2.8,0,3.9
		L4.7,19.2C4.1,19.7,3.4,20,2.7,20z"/>
</g>
<g>
	<path class="st0" d="M31.7,20c-0.7,0-1.4-0.3-1.9-0.8L15.3,4.7c-1.1-1.1-1.1-2.8,0-3.9s2.8-1.1,3.9,0l14.5,14.5
		c1.1,1.1,1.1,2.8,0,3.9C33.1,19.7,32.4,20,31.7,20z"/>
</g>
<g>
	<path class="st1" d="M17.2,45.8c-5.8,0-10.4-4.7-10.4-10.4c0-5.8,4.7-10.4,10.4-10.4s10.4,4.7,10.4,10.4
		C27.7,41.1,23,45.8,17.2,45.8z M17.2,30.4c-2.8,0-5,2.2-5,5s2.2,5,5,5s5-2.2,5-5S20,30.4,17.2,30.4z"/>
</g>
</svg>
