<?xml version="1.0" encoding="utf-8"?>
<!-- Generator: Adobe Illustrator 19.2.1, SVG Export Plug-In . SVG Version: 6.00 Build 0)  -->
<svg version="1.1" id="Layer_1" xmlns="http://www.w3.org/2000/svg" xmlns:xlink="http://www.w3.org/1999/xlink" x="0px" y="0px"
	 viewBox="0 0 800 800" style="enable-background:new 0 0 800 800;" xml:space="preserve">
<style type="text/css">
	.st0{fill:#E6D369;}
</style>
<title>noun_110868_cc</title>
<path class="st0" d="M342.4,800c-13.6,0-25.3-11.7-25.3-25.3V658.1C138.3,625.1,12,491,12,333.5C12,150.8,186.9,1.2,400.7,1.2
	s388.7,149.7,388.7,332.4c0,167.2-143.8,307.1-334.3,330.4l-93.3,126.3C358,796.1,350.2,800,342.4,800z M400.7,53.6
	C214.1,53.6,62.5,180,62.5,335.5c0,138,118.6,254.6,281.8,277.9c13.6,1.9,21.4,13.6,21.4,25.3V697l54.4-73.9
	c3.9-5.8,11.7-9.7,19.4-9.7c171-15.5,299.3-136.1,299.3-279.9C738.9,178,587.3,53.6,400.7,53.6z"/>
<g>
	<rect x="232.3" y="308.5" class="st0" width="69.2" height="69.2"/>
	<rect x="366.1" y="308.5" class="st0" width="69.2" height="69.2"/>
	<rect x="499.9" y="308.5" class="st0" width="69.2" height="69.2"/>
</g>
</svg>
