<?xml version="1.0" encoding="utf-8"?>
<!-- Generator: Adobe Illustrator 19.2.1, SVG Export Plug-In . SVG Version: 6.00 Build 0)  -->
<svg version="1.1" id="Layer_1" xmlns="http://www.w3.org/2000/svg" xmlns:xlink="http://www.w3.org/1999/xlink" x="0px" y="0px"
	 viewBox="0 0 800 800" style="enable-background:new 0 0 800 800;" xml:space="preserve">
<style type="text/css">
	.st0{fill:#69BA98;}
</style>
<title>eservs</title>
<path class="st0" d="M782.2,53.4H17.8C8,53.4,0,61.4,0,71.2l0,0v550.6c0,9.9,7.9,17.9,17.8,18.1c0,0,252.8,0,257.6,0l-58.6,78
	c-4,5.4-4.6,12.6-1.6,18.6c3,6.1,9.1,9.9,15.9,10h337.7c9.8,0,17.8-7.9,17.8-17.8c0-3.8-1.2-7.5-3.5-10.6l-58.7-78.3
	c5.6,0,257.8,0,257.8,0c9.9-0.1,17.8-8.2,17.8-18.1V71.2C800,61.4,792,53.4,782.2,53.4L782.2,53.4z M266.6,710.7l26.8-35.5h213.1
	l26.8,35.5H266.6z M764.3,604.4H35.5v-71.1h728.8V604.4z M764.5,497.4h-729V88.9h728.9L764.5,497.4L764.5,497.4z"/>
<circle class="st0" cx="399.2" cy="568.5" r="17.8"/>
</svg>
