<svg id="Layer_1" data-name="Layer 1" xmlns="http://www.w3.org/2000/svg" viewBox="0 0 42.09 101.02"><defs><style>.cls-1{fill:#fff;}</style></defs><title>icon-info</title><path class="cls-1" d="M29.91,0a10.12,10.12,0,0,0-7.43,3.07,10.23,10.23,0,0,0-3,7.42,10.11,10.11,0,0,0,3.07,7.43,10.42,10.42,0,0,0,14.78,0,10.12,10.12,0,0,0,3.07-7.43,10.11,10.11,0,0,0-3.07-7.42A10,10,0,0,0,29.91,0Zm4.43,32.84-0.25.86,0.25,0V32.84Zm-0.25.86c-9.4,1.36-18.78,2.05-28.2,3.33l-1,4.21c1,0,1.86,0,2.57,0a5.37,5.37,0,0,1,3.71,1.21,3.65,3.65,0,0,1,1.35,2.79c0,1.67-.48,2.46-1.43,5.74L1.21,85.1A24.49,24.49,0,0,0,0,91.81a8.88,8.88,0,0,0,2.71,6.64c1.86,1.71,7.66,2.57,10.76,2.57,8.09,0,21.44-4.32,28.62-16.84l-5.78-3.37c-3,4.62-8.41,8-10.89,9.45a9.84,9.84,0,0,1-4.93,1.18,1.92,1.92,0,0,1-1.36-.64,2.21,2.21,0,0,1-.64-1.5A28.06,28.06,0,0,1,19.7,83.6Z"/></svg>