<svg id="Layer_1" data-name="Layer 1" xmlns="http://www.w3.org/2000/svg" viewBox="0 0 200 200"><defs><style>.cls-1{fill:#f5f5f5;}</style></defs><title>orglife</title><path class="cls-1" d="M99.54,180.51A27.54,27.54,0,0,1,72,153H77.1A22.44,22.44,0,1,0,122,153h5.07A27.55,27.55,0,0,1,99.54,180.51Z"/><path class="cls-1" d="M99.54,200a47.06,47.06,0,0,1-47-47h5.07a41.94,41.94,0,0,0,83.88,0h5.07A47.07,47.07,0,0,1,99.54,200Z"/><polygon class="cls-1" points="77.1 152.99 72.03 152.99 72.03 111.06 57.61 111.06 57.61 152.99 52.53 152.99 52.53 105.98 77.1 105.98 77.1 152.99"/><polygon class="cls-1" points="146.55 152.99 141.48 152.99 141.48 111.06 127.06 111.06 127.06 152.99 121.99 152.99 121.99 105.98 146.55 105.98 146.55 152.99"/><rect class="cls-1" x="55.07" y="131.91" width="19.49" height="5.07"/><rect class="cls-1" x="124.52" y="131.91" width="19.5" height="5.07"/><path class="cls-1" d="M65.06,55.56a15.37,15.37,0,1,1,3.67-.44A15.67,15.67,0,0,1,65.06,55.56Zm0-25.66a10.37,10.37,0,0,0-2.46.3,10.29,10.29,0,0,0,2.44,20.29A10.29,10.29,0,1,0,65.08,29.9Z"/><path class="cls-1" d="M48.39,89.65l-0.12-3.1a27.93,27.93,0,0,1,53.09-13l1.35,2.82Zm27.82-26.9A22.92,22.92,0,0,0,53.44,83.19L95.22,73A23,23,0,0,0,76.21,62.75Z"/><path class="cls-1" d="M122.19,30.73a15.53,15.53,0,0,1-3-.29,15.37,15.37,0,0,1,3-30.44,15.67,15.67,0,0,1,3,.29A15.37,15.37,0,0,1,122.19,30.73Zm0-25.66a10.29,10.29,0,1,0,2,.19A10.59,10.59,0,0,0,122.17,5.07Z"/><path class="cls-1" d="M141.11,64L86.24,53.21l1.2-2.87a27.7,27.7,0,0,1,25.64-17,28.37,28.37,0,0,1,5.47.54,28,28,0,0,1,22.53,27ZM93.53,49.47l42.21,8.3a23,23,0,0,0-18.18-18.95,23.27,23.27,0,0,0-4.49-.44A22.66,22.66,0,0,0,93.53,49.47Z"/><path class="cls-1" d="M159.35,73.75a12.2,12.2,0,1,1,11.19-7.32A12.1,12.1,0,0,1,159.35,73.75Zm0-19.34a7.13,7.13,0,0,0-2.86,13.66,7.05,7.05,0,0,0,2.85.6A7.13,7.13,0,0,0,162.21,55,7.05,7.05,0,0,0,159.36,54.42Z"/><path class="cls-1" d="M165.82,101.29l-40-17.49,1.79-2.54a21.67,21.67,0,0,1,38.87,17Zm-32-19.52,28,12.24A16.62,16.62,0,0,0,133.81,81.77Z"/><path class="cls-1" d="M21.2,131.44a21.15,21.15,0,0,1,5.24-29c3.9-2.7,6.7-5.11,7.7-8C35.3,91,34,86.72,30.25,81.29c-3.48-5-4.63-9.71-3.41-14,1.73-6,7.66-8.64,7.91-8.75l2,4.66s-4,1.81-5.05,5.53c-0.76,2.71.15,5.95,2.71,9.63C39.17,85.25,40.65,91,38.94,96c-1.62,4.71-5.81,7.93-9.61,10.57a16,16,0,0,0-4,22Z"/><path class="cls-1" d="M170.89,147.66l-2-4.66,1,2.33-1-2.32a5.35,5.35,0,0,0,2.73-3c0.4-1.46-.14-3.27-1.61-5.38-3.22-4.64-4.21-8.59-3-12.08,1.12-3.28,3.94-5.44,6.49-7.21a9.33,9.33,0,0,0,2.31-12.8l4.17-2.89a14.46,14.46,0,0,1-3.58,19.85c-2.35,1.63-4,3-4.59,4.69-0.63,1.85.14,4.32,2.38,7.54,2.39,3.44,3.17,6.71,2.31,9.71A10.29,10.29,0,0,1,170.89,147.66Z"/></svg>