<svg id="Layer_1" data-name="Layer 1" xmlns="http://www.w3.org/2000/svg" viewBox="0 0 200 200"><defs><style>.cls-1{fill:#f5f5f5;}</style></defs><title>orglife</title><path class="cls-1" d="M143.16,5.51A55.1,55.1,0,0,0,99.89,26.35,55.3,55.3,0,0,0,1.34,60.79c0,23.11,16.31,52.56,48.48,87.22a537.83,537.83,0,0,0,48,45.31,3.65,3.65,0,0,0,2,.68,3.16,3.16,0,0,0,2-.68,515.45,515.45,0,0,0,48-45.08c32.17-34.89,48.48-64.34,48.48-87.45A55.5,55.5,0,0,0,143.16,5.51ZM99.89,186.07c-14-11.55-91.75-78.39-91.75-125.28A48.54,48.54,0,0,1,56.62,12.31,48,48,0,0,1,96.94,34.06a3.63,3.63,0,0,0,5.66,0,48.4,48.4,0,0,1,88.81,26.73C191.64,107.68,113.93,174.52,99.89,186.07Z"/><path class="cls-1" d="M58,22.73A39.84,39.84,0,0,0,18.33,62.37a3.4,3.4,0,1,0,6.8,0A32.87,32.87,0,0,1,58,29.53,3.4,3.4,0,0,0,58,22.73Z"/></svg>