<svg id="Layer_1" data-name="Layer 1" xmlns="http://www.w3.org/2000/svg" viewBox="0 0 200 200"><defs><style>.cls-1{fill:#f5f5f5;}</style></defs><title>orglife</title><path class="cls-1" d="M35.55,77.71a8.91,8.91,0,1,1,8.91-8.91A8.93,8.93,0,0,1,35.55,77.71Zm0-13.14a4.23,4.23,0,0,0,0,8.46,4.38,4.38,0,0,0,4.23-4.23A4,4,0,0,0,35.55,64.57Z"/><path class="cls-1" d="M58.26,176.33A3,3,0,0,1,56,175L6.83,56.78a2.46,2.46,0,0,1,0-1.78,2,2,0,0,1,1.34-1.34c0.89-.45,22.26-8.91,50.32-8.91s46.31,8.24,47,8.46a2.21,2.21,0,0,1,1.11,2.89L60.48,175a2.24,2.24,0,0,1-2.23,1.34h0ZM11.95,57.22L58,167.87l43.19-111.1A127.31,127.31,0,0,0,58,49.43,144.13,144.13,0,0,0,11.95,57.22Z"/><path class="cls-1" d="M9.06,58.11a2.45,2.45,0,0,1-2.23-1.34L1,43.42A2.56,2.56,0,0,1,2.15,40.3C3,39.86,25.09,28.73,56.7,28.73s53.66,9.57,54.55,9.8a2.48,2.48,0,0,1,1.34,3.12l-5.79,14.47a2.32,2.32,0,0,1-2.89,1.34c-0.22,0-21.82-8-47-8s-46.53,8.46-46.75,8.46A3,3,0,0,1,9.06,58.11ZM6.16,43.64l4,9.13a145.87,145.87,0,0,1,46.53-8A154.88,154.88,0,0,1,103,52.32l4-10.24A151.93,151.93,0,0,0,56.48,33.4C31.54,33.62,12.17,41,6.16,43.64Z"/><path class="cls-1" d="M52.69,112.88A14.69,14.69,0,1,1,67.39,98.19,14.82,14.82,0,0,1,52.69,112.88Zm0-24.71a10,10,0,1,0,10,10A10,10,0,0,0,52.69,88.17Z"/><path class="cls-1" d="M61.6,80.6a8.91,8.91,0,1,1,8.91-8.91A8.79,8.79,0,0,1,61.6,80.6Zm0-13.36a4.23,4.23,0,0,0-4.23,4.23A4.38,4.38,0,0,0,61.6,75.7,4.23,4.23,0,0,0,61.6,67.24Z"/><path class="cls-1" d="M118.81,100.86A8.91,8.91,0,1,1,127.72,92,8.66,8.66,0,0,1,118.81,100.86Zm0-13.14A4.23,4.23,0,1,0,123,92,4,4,0,0,0,118.81,87.72Z"/><path class="cls-1" d="M56.7,136.93A8.91,8.91,0,1,1,65.6,128,8.93,8.93,0,0,1,56.7,136.93Zm0-13.14A4.23,4.23,0,0,0,52.47,128a4.38,4.38,0,0,0,4.23,4.23A4.23,4.23,0,0,0,56.7,123.79Z"/><path class="cls-1" d="M80.52,73.92A10.69,10.69,0,1,1,91.21,63.23,10.69,10.69,0,0,1,80.52,73.92Zm0-16.7a6,6,0,1,0,6,6A6,6,0,0,0,80.52,57.22Z"/><path class="cls-1" d="M64,180.56a2,2,0,0,1-.45-2.45L112.36,59.45a2,2,0,0,1,1.34-1.34,2.46,2.46,0,0,1,1.78,0,151.77,151.77,0,0,1,41.86,29.17c19.81,19.81,26.94,38.52,27.16,39.41a2.14,2.14,0,0,1-1.34,2.89L66.72,181a2.37,2.37,0,0,1-2.67-.45h0ZM115.7,63.46L70.06,174.55l109.09-48.09a126.84,126.84,0,0,0-25.38-35.62A143.71,143.71,0,0,0,115.7,63.46Z"/><path class="cls-1" d="M112.8,62.12a2,2,0,0,1-.45-2.45l5.34-13.58a2.32,2.32,0,0,1,2.89-1.34c0.89,0.22,24.27,8,46.75,30.5,22.26,22.26,31.17,44.53,31.61,45.42a2.14,2.14,0,0,1-1.34,2.89l-14.25,6a2.56,2.56,0,0,1-3.12-1.11c0-.22-9.57-21.15-27.38-39s-39-26.94-39.18-27.16A5.05,5.05,0,0,1,112.8,62.12Zm8.46-12.24-3.56,9.35c5.79,2.89,23.15,11.8,38.52,27.16a149.29,149.29,0,0,1,27.38,38.29l10-4.23c-2.67-6-11.8-24-29.61-41.86A130.39,130.39,0,0,0,121.26,49.88Z"/><path class="cls-1" d="M111.47,138a14.8,14.8,0,1,1,20.93,0A14.78,14.78,0,0,1,111.47,138Zm17.59-17.59a10.08,10.08,0,1,0,0,14.25A10.36,10.36,0,0,0,129.06,120.45Z"/><path class="cls-1" d="M130.39,107.32a9,9,0,1,1,12.69,0A9.29,9.29,0,0,1,130.39,107.32ZM140,97.74a4,4,0,0,0-6,0c-1.56,1.78-1.78,4.45,0,6a4,4,0,0,0,6,0A4.45,4.45,0,0,0,140,97.74Z"/><path class="cls-1" d="M90.76,151.62a9,9,0,1,1,12.69,0A9.29,9.29,0,0,1,90.76,151.62Zm9.35-9.35a4,4,0,0,0-6,0c-1.56,1.78-1.78,4.45,0,6A4.25,4.25,0,1,0,100.11,142.27Z"/><path class="cls-1" d="M152.43,123.79a10.71,10.71,0,1,1,15.14,0A10.62,10.62,0,0,1,152.43,123.79Zm11.8-11.8a6,6,0,1,0,0,8.46A6.19,6.19,0,0,0,164.23,112Z"/></svg>