<svg id="Layer_1" data-name="Layer 1" xmlns="http://www.w3.org/2000/svg" viewBox="0 0 200 200"><defs><style>.cls-1{fill:#f5f5f5;}</style></defs><title>orglife</title><path class="cls-1" d="M123.69,74.23c-2.3,0-4.33-1.49-6.67-3.21l-1-.7c-6.15-4.44-14.35-9.86-15.91-10.88L89.86,57.2a1.66,1.66,0,0,1-1.28-2,1.68,1.68,0,0,1,2-1.26l10.59,2.31a1.71,1.71,0,0,1,.57.24c0.09,0.06,9.44,6.19,16.29,11.13l1,0.72c1.82,1.33,3.5,2.56,4.73,2.56a4.3,4.3,0,0,0,3.08-1.45,3,3,0,0,0,.84-2.16,14.39,14.39,0,0,0-4-7.94,1.65,1.65,0,0,1,.14-2.34,1.69,1.69,0,0,1,2.37.14A17.59,17.59,0,0,1,131,66.94a6.21,6.21,0,0,1-1.64,4.69,7.67,7.67,0,0,1-5.51,2.59h-0.16Z"/><path class="cls-1" d="M68.95,118.13a1.68,1.68,0,0,1-1.62-1.22c-0.6-2.17-3.32-12.14-3.73-16.39-2.82-1.38-6-5-7.23-9.59-1.37-5.17.08-10.34,4.08-14.7a7.24,7.24,0,0,1,.09-4.17c0.64-2.54,2.65-6.88,5.21-8.78a8.39,8.39,0,0,1,.52-5.44c1-2.62,3.15-5.23,5.79-6a13,13,0,0,1,3.44-8.17c2.18-2.16,5.18-3.2,8.95-3.09h0.32c6.28,0,16.79,1.89,26.33,6.16A1.65,1.65,0,0,1,112,49a1.69,1.69,0,0,1-2.22.82c-9.24-4.14-19.36-5.88-25.3-5.87-2.84-.08-5,0.63-6.54,2.11-2.6,2.58-2.53,6.76-2.51,7.22a1.65,1.65,0,0,1-.49,1.23,1.67,1.67,0,0,1-1.25.48H73.57C72.12,55,70.34,56.7,69.4,59c-0.72,1.8-.66,3.3-0.19,3.7a1.64,1.64,0,0,1,.5,1.76,1.67,1.67,0,0,1-1.44,1.14c-0.36,0-1.6,1-3,3.47-1.62,3-2,5.51-1.67,6a1.5,1.5,0,0,1,.69,1.17,1.59,1.59,0,0,1-.56,1.29c-4.9,4.73-5,9.39-4.15,12.48,1.12,4.22,4.29,7.22,6.05,7.68a1.66,1.66,0,0,1,1.24,1.75c-0.15,1.73,2,10.7,3.66,16.52a1.65,1.65,0,0,1-1.17,2A1.77,1.77,0,0,1,68.95,118.13Z"/><path class="cls-1" d="M122.62,88.2a6.59,6.59,0,0,1-3.24-.88c-3.58-2-8.88-5.5-15.78-10.41a1.51,1.51,0,0,1-.26-0.23C98,70.81,82.73,69.31,82.58,69.29a1.66,1.66,0,1,1,.32-3.3c0.67,0.06,16.46,1.62,22.8,8.32,8.38,6,13,8.79,15.34,10.12s4.32-.74,4.54-1c1.67-1.9,1.67-1.9-2.8-8-0.24-.33-1.29-1.27-4.93-3.87l-0.25-.18a1.65,1.65,0,0,1-.37-2.32,1.69,1.69,0,0,1,2.34-.37l0.25,0.18c2.9,2.07,5,3.65,5.68,4.61,5,6.8,5.91,8.37,2.6,12.13A7.66,7.66,0,0,1,122.62,88.2Z"/><path class="cls-1" d="M117.41,98.5c-3.59,0-9.31-3.17-18.33-9.92l-0.17-.15c-4.47-4.36-17.82-6.55-22.58-7a1.66,1.66,0,1,1,.34-3.3c0.75,0.07,18.38,1.91,24.6,8,14.52,10.85,16.65,9.12,16.72,9,0.23-.3.64-0.72,1-1.14,1.21-1.26,1.95-2.09,1.85-3s-1.3-3.14-6.36-6.72a1.65,1.65,0,0,1-.39-2.31,1.68,1.68,0,0,1,2.34-.38c5.09,3.6,7.49,6.41,7.75,9.1,0.24,2.51-1.42,4.25-2.75,5.64-0.35.37-.7,0.73-1,1.11A4.19,4.19,0,0,1,117.41,98.5Z"/><path class="cls-1" d="M82.74,69.3a1.68,1.68,0,0,1-1.3-.61l-2.28-2.77a1.65,1.65,0,0,1,.24-2.33,1.69,1.69,0,0,1,2.36.23L84,66.6a1.65,1.65,0,0,1-.24,2.33A1.68,1.68,0,0,1,82.74,69.3Z"/><path class="cls-1" d="M90.22,57.24a1.68,1.68,0,0,1-1.2-.5l-2.57-2.61a1.65,1.65,0,0,1,0-2.34,1.7,1.7,0,0,1,2.37,0l2.57,2.61a1.65,1.65,0,0,1,0,2.34A1.68,1.68,0,0,1,90.22,57.24Z"/><path class="cls-1" d="M86.58,57.58a1.66,1.66,0,0,1-.13-3.31L90.12,54a1.7,1.7,0,0,1,1.81,1.52,1.66,1.66,0,0,1-1.54,1.78l-3.67.29H86.58Z"/><path class="cls-1" d="M79.36,69.59a1.66,1.66,0,0,1-.13-3.31L82.9,66a1.68,1.68,0,0,1,1.81,1.52,1.66,1.66,0,0,1-1.54,1.78l-3.67.29H79.36Z"/><path class="cls-1" d="M74.39,81.92a1.65,1.65,0,0,1-.3-3.28l2.3-.42A1.66,1.66,0,1,1,77,81.47l-2.3.42Z"/><path class="cls-1" d="M76.49,81.41A1.68,1.68,0,0,1,75.38,81l-1.52-1.34a1.64,1.64,0,0,1-.14-2.34,1.69,1.69,0,0,1,2.37-.14l1.52,1.34a1.64,1.64,0,0,1,.14,2.34A1.69,1.69,0,0,1,76.49,81.41Z"/><path class="cls-1" d="M135.31,80.5a1.68,1.68,0,0,1-1.27-.57,1.65,1.65,0,0,1,.17-2.34l5.7-4.88a1.69,1.69,0,0,1,2.37.17,1.65,1.65,0,0,1-.17,2.34l-5.7,4.88A1.71,1.71,0,0,1,135.31,80.5Z"/><path class="cls-1" d="M132.94,104.79a1.67,1.67,0,0,1-1.38-.71,1.65,1.65,0,0,1,.42-2.31c3.18-2.18,9.79-8.71,9.86-8.78a1.69,1.69,0,0,1,2.37,0,1.64,1.64,0,0,1,0,2.34c-0.28.28-6.9,6.81-10.32,9.16A1.71,1.71,0,0,1,132.94,104.79Z"/><path class="cls-1" d="M112.85,200a1.68,1.68,0,0,1-1.43-.79L97.85,177.27a1.65,1.65,0,0,1,.55-2.28,1.68,1.68,0,0,1,2.3.55l13.56,21.94a1.65,1.65,0,0,1-.55,2.28A1.67,1.67,0,0,1,112.85,200Z"/><path class="cls-1" d="M170.27,165.28a1.69,1.69,0,0,1-1.43-.79l-23.9-38.65-39.16,23.68a1.69,1.69,0,0,1-2.3-.55,1.65,1.65,0,0,1,.55-2.28l40.59-24.54a1.68,1.68,0,0,1,2.3.55l24.77,40.06a1.65,1.65,0,0,1-.55,2.28A1.68,1.68,0,0,1,170.27,165.28Z"/><path class="cls-1" d="M141.22,127.82a1.68,1.68,0,0,1-1.49-.89L136.6,121a1.65,1.65,0,0,1,.71-2.24,1.69,1.69,0,0,1,2.26.7l3.13,6a1.65,1.65,0,0,1-.71,2.24A1.71,1.71,0,0,1,141.22,127.82Z"/><path class="cls-1" d="M88.1,196.7a1.7,1.7,0,0,1-.83-0.22,1.65,1.65,0,0,1-.62-2.26L103,166.13,47.5,134.64,31.19,162.72a1.69,1.69,0,0,1-2.29.61,1.65,1.65,0,0,1-.62-2.27l17.14-29.52a1.68,1.68,0,0,1,2.29-.61l58.36,33.15a1.65,1.65,0,0,1,.62,2.26L89.55,195.86A1.67,1.67,0,0,1,88.1,196.7Z"/><path class="cls-1" d="M100.88,164.72a1.67,1.67,0,0,1-.83-0.22L49.84,136a1.65,1.65,0,0,1-.62-2.26l7.6-13.08a1.69,1.69,0,0,1,1-.78,1.71,1.71,0,0,1,1.27.16l50.21,28.51a1.65,1.65,0,0,1,.62,2.26l-7.6,13.08A1.68,1.68,0,0,1,100.88,164.72ZM53,133.94l47.3,26.86,5.93-10.21-47.3-26.86Z"/><path class="cls-1" d="M65.41,125.13a1.7,1.7,0,0,1-.87-0.23,1.65,1.65,0,0,1-.57-2.28c3.06-5,5-9.25,5.7-12.3,0.59-2.65,3.8-8,9.55-15.91A1.69,1.69,0,0,1,81.56,94a1.64,1.64,0,0,1,.38,2.31C74.49,106.6,73.17,110,73,111c-0.76,3.45-2.82,7.92-6.11,13.3A1.68,1.68,0,0,1,65.41,125.13Z"/><path class="cls-1" d="M106.12,104.17c-4.8,0-9.84-3.83-11.18-4.93-2-.46-11-2.55-13.26-3.09-1.49-.37-7.15.26-10.69,0.82a1.66,1.66,0,1,1-.53-3.27c1.54-.24,9.34-1.42,12-0.76C85,93.54,96.1,96.1,96.1,96.1a1.69,1.69,0,0,1,.73.37c1.64,1.43,6.68,5,10.21,4.3a4.44,4.44,0,0,0,3.12-2.64c0.66-1.3-1.55-2.85-1.57-2.87a1.64,1.64,0,0,1-.45-2.3,1.68,1.68,0,0,1,2.33-.44c1.63,1.09,4.28,4,2.69,7.1a7.76,7.76,0,0,1-5.48,4.41A8,8,0,0,1,106.12,104.17Z"/><path class="cls-1" d="M102.8,147a1.7,1.7,0,0,1-.87-0.24,1.65,1.65,0,0,1-.57-2.28,78.47,78.47,0,0,1,5.68-8.61c7.41-8.84,22.88-15.17,31.19-18.57,1.74-.71,3.11-1.27,3.9-1.66,2.85-1.4,2.92-3.65,2.69-7.2-0.16-2.43-.34-5.17,1.8-6.78,1.85-1.38.73-7.36,0.25-9.91a20,20,0,0,1-.39-2.53,1.67,1.67,0,0,1,.15-0.74,17.32,17.32,0,0,0-2.8-19.53,1.64,1.64,0,0,1-.43-1.42c1.11-6.31.26-11-2.53-14-4-4.28-10.81-3.68-10.88-3.67a1.66,1.66,0,1,1-.33-3.3c0.34,0,8.53-.76,13.67,4.71,3.41,3.64,4.59,9,3.51,16a20.53,20.53,0,0,1,3,22.15c0.06,0.42.18,1.07,0.3,1.7,0.79,4.19,2,10.53-1.52,13.15-0.7.53-.6,2.18-0.48,3.92,0.22,3.34.52,7.91-4.54,10.38-0.87.42-2.29,1-4.1,1.75-7.47,3.05-23,9.42-29.9,17.63a78.21,78.21,0,0,0-5.39,8.21A1.67,1.67,0,0,1,102.8,147Z"/><path class="cls-1" d="M121.22,60.93h0c-6.8,0-12.26-7-12.49-7.27a1.51,1.51,0,0,1-.19-0.31c-2.76-5.92,5-9.64,9.69-11.87a5.72,5.72,0,0,1,2.54-.56c4,0,8.81,3.61,10.76,7,1.18,2.05,1.34,4,.45,5.51C129,58.41,125.39,60.93,121.22,60.93Zm-9.7-9.13c0.76,0.93,5,5.81,9.7,5.82,2.9,0,5.55-2,7.88-5.87a2.5,2.5,0,0,0-.47-2.18c-1.58-2.73-5.4-5.32-7.85-5.32a2.38,2.38,0,0,0-1.06.22C114,47.21,110.58,49.4,111.51,51.8Z"/><path class="cls-1" d="M106.16,25.41a1.67,1.67,0,0,1-1.68-1.66V1.66a1.68,1.68,0,0,1,3.35,0v22.1A1.67,1.67,0,0,1,106.16,25.41Z"/><path class="cls-1" d="M59.39,34.41a1.68,1.68,0,0,1-1.18-.48L42.4,18.3a1.64,1.64,0,0,1,0-2.34,1.69,1.69,0,0,1,2.37,0l15.8,15.63a1.64,1.64,0,0,1,0,2.34A1.69,1.69,0,0,1,59.39,34.41Z"/><path class="cls-1" d="M152.93,34.41a1.68,1.68,0,0,1-1.18-.48,1.64,1.64,0,0,1,0-2.34L167.54,16a1.69,1.69,0,0,1,2.37,0,1.64,1.64,0,0,1,0,2.34l-15.8,15.63A1.68,1.68,0,0,1,152.93,34.41Z"/></svg>